<svg version="1.2" xmlns="http://www.w3.org/2000/svg" viewBox="0 0 1561 1048" width="1561" height="1048">
	<title>lhc-group-white-svg</title>
	<style>
		.s0 { fill: #005288 } 
	</style>
	<path id="Layer" fill-rule="evenodd" class="s0" d="m598.1 765.6h-115.1v-423.3h130.1c-0.4-1.1-0.9-2.1-1.3-3.2-1-2.2-1.9-4.3-1.9-6.4-1-5.8 0.7-10.8 2.6-16.4l0.6-1.7h-129.1v-142.9h67.2c8.5-6.4 20.3-9.6 35.2-11.8 18.1-2.1 32 3.2 44.8 11.8h19.2v-171.7h145v171.7h19.2c11.7-8.6 26.6-13.9 44.8-11.8 14.9 1.1 26.6 5.4 35.2 11.8h69.3v142.9h-131.2c3.2 5.3 4.3 11.7 3.2 18.1-1.1 3.2-2.1 6.4-4.3 9.6h132.3v423.3h-115.2v-161h-250.6zm219.7-257v-154.6c-3.2 1.1-5.3 2.1-7.5 3.2-6.4 2.1-11.7 2.1-17 2.1v125.9h-142.9v-125.9c-4.6 0-9.1-0.7-14.3-1.6l-2.8-0.5c-1.5 0-2.5-0.6-3.8-1.3q-0.7-0.4-1.5-0.8v153.5zm-206.9-177c1.1 9.6 8.6 18.1 22.4 23.5 26.7 5.3 35.2-4.3 45.9-17.1l1.1-1.4c3.7-4.7 6.8-8.6 11.7-12.5l2.1 2.2c-8.5 10.6-11.7 21.3-11.7 32-1.1 1-4.3 23.4 39.4 71.4 42.7-49 39.5-71.4 39.5-71.4 1-11.8-3.2-21.4-11.8-32l2.2-2.2c5.3 5.4 9.6 9.6 12.8 13.9 10.6 13.9 19.2 22.4 45.8 17.1 13.9-6.4 21.3-13.9 22.4-23.5 2.1-19.2-19.2-40.5-25.6-46.9 0 6.4-3.2 22.4-14.9 28.8-11.7 5.3-27.7 1-48-13.9l-2.1-1h2.1c9.6-3.2 14.9-7.5 14.9-12.8 0-4.3-3.2-7.5-9.6-10.7l-2.1-1.1 3.2-2.1c56.5-42.7 98.1-57.6 121.6-44.8 18.1 10.7 20.2 34.1 20.2 44.8 7.5-13.9 27.7-56.5 13.9-84.2-7.5-15-23.5-23.5-48-26.7-35.5-3.1-55.6 21.3-75.5 45.3l-1.3 1.6c-11.7 14.9-23.4 28.8-37.3 35.2l-1.1-2.1c17.1-20.3 28.8-41.6 27.8-77.9 0 0 4.2-32-48-155.6-52.3 123.6-48 155.6-48 155.6-1.1 36.3 10.7 57.6 27.7 77.9l-1 2.1c-13.9-6.4-25.6-20.3-37.4-35.2-19.2-25.6-39.4-51.2-76.7-46.9-24.6 3.2-40.6 11.7-48 26.7-13.9 28.7 6.4 70.3 13.8 84.2 0-10.7 2.2-35.2 20.3-44.8q35.2-19.2 121.6 44.8l2.1 1.1-2.1 1c-6.4 3.2-9.6 6.4-9.6 10.7 0 5.3 5.3 9.6 14.9 12.8l2.1 1.1-2.1 1c-20.3 14.9-37.3 19.2-48 13.9-11.2-6.1-13.7-21.1-14.8-27.9l-0.1-0.9c-6.4 6.4-27.7 27.7-26.7 46.9zm-174.9 434h-433.9v-414.8h146v315.6h287.9zm826.4-94.9c60.8 0 89.6-3.2 89.6-51.2h-1.1v-11.7h149.3v11.7c0 44.8-1.1 85.4-50.1 116.3-47.5 29.9-105.9 29.9-166.7 29.8h-6c-148.3 0-257-5.3-257-154.6v-105.5c0-135.5 97-154.7 257-154.7 150.3 0 219.6 11.8 222.8 134.4v16h-149.3v-17.1c-5.3-36.2-39.4-39.4-88.5-39.4-82.1 0-90.6 19.2-90.6 77.8v64c0 60.8 3.2 84.2 90.6 84.2zm-581.1-502.2c0 0-2.1-50.1 36.2-124.8 0 0-47.9 115.2-9.5 189.8 0 0-29.9-26.6-26.7-65zm19.1 151.7q0.1-0.1 0.1-0.3 0.1 0-0.1 0.3zm16.1 86.1c-40.9-41.9-20.7-77.7-16.6-85q0.4-0.8 0.5-1.1c-11.5 52.1 16.1 86.1 16.1 86.1zm-553.4 580c0 2.7-2 3.2-4.4 3.8-4.4 1.1-10.6 2.6-10.6 17.6 0 4.8 0.5 8.8 0.8 11.6 0.2 1.4 0.3 2.6 0.3 3.3 0 2.1 0 3.2-2.1 4.3-20.3 9.6-44.8 18.1-69.3 18.1-65.1 0-74.7-46.9-74.7-61.8 0-31 23.5-71.5 78.9-71.5 21.3 0 36.5 5.6 46 9 4.3 1.6 7.5 2.7 9.5 2.7 2.3 0 3.6-1.5 4.9-2.9 1.1-1.2 2.1-2.4 3.6-2.4 3.2 0 3.2 4.3 3.2 7.5v30.9c0 2.1-1.1 3.2-5.3 3.2-0.9 0-1.6-1.8-2.8-4.6-4.1-10.4-13.9-34.9-60.1-34.9-21.4 0-50.1 10.7-50.1 57.6 0 25.6 14.9 58.7 51.1 58.7 39.5 0 40.6-15 40.6-25.6 0-19.1-11.7-19.9-19.6-20.5-4.1-0.3-7.1-0.5-7.1-3 0-4.6 4.7-4.4 8.8-4.3q1 0 1.9 0.1c5.3 0 10.4 0.2 15.4 0.5 5.1 0.3 10.2 0.5 15.5 0.5 3.7 0 7.7-0.2 11.7-0.5 4-0.3 8-0.5 11.7-0.5 1.1 0 2.2 1 2.2 3.1zm327.3 46.4c1.1-0.2 2.2-0.5 3.2-0.5 2.2 0 3.2 1.1 2.2 3.2 0 5.3-15 9.6-23.5 9.6-17.1 0-24.5-11.7-30.9-22.4l-18.1-28.8c-5.4-7.5-9.6-9.6-20.3-9.6-10.8 0-10.8 0.9-10.7 6v0.9 0.6 32c0 12.9 9.2 14.5 15.8 15.7 3.7 0.7 6.6 1.2 6.6 3.5 0 2.1-1 3.2-6.4 3.2-1.7 0-3.6-0.2-5.8-0.4-3.4-0.3-7.6-0.7-13.4-0.7-6 0-12 0.3-17.8 0.5-5.6 0.3-11.1 0.6-16.3 0.6-3.2 0-7.5 0-7.5-3.2 0-2.2 2.2-2.9 5-3.8 5.4-1.8 13.2-4.3 13.2-19.7v-81c0-13-10.1-15.1-17.3-16.5-4.1-0.8-7.2-1.5-7.2-3.8 0-2.1 3.2-3.2 5.3-3.2 4.3 0 7.2 0.2 10.2 0.5 3.7 0.3 7.8 0.6 15.4 0.6 7.4 0 14.9-0.3 22.4-0.6 7.4-0.2 14.9-0.5 22.4-0.5 49 0 53.3 25.6 53.3 34.1 0 10.7-6.4 18.2-12.8 22.4-2.9 1.9-5.8 3.2-8.1 4.2-2.8 1.3-4.7 2.1-4.7 3.3 0 0.6 6.3 9.6 14.7 21.7 6.3 8.9 13.7 19.5 20.5 29.5 1 3.2 5.3 3.2 7.4 3.2 1.1 0 2.2-0.3 3.2-0.6zm-97-62.3c0 4.2 8.5 4.2 14.9 4.2 33.1 0 34.1-9.6 35.2-20.2 0-18.2-12.8-32-35.2-32-8.5 0-14.9 0-14.9 10.6zm440.4 4.3c0 25.6-13.9 70.4-84.3 70.4-44.7 0-74.6-24.6-74.6-61.9 0-39.4 28.8-70.3 82.1-70.3 42.7 0 75.7 23.4 76.8 61.8zm-27.7 4.3c0-32.5-23.2-58.7-51.8-58.7-28.6 0-51.7 26.2-51.7 58.7 0 32.4 23.1 58.6 51.7 58.6 28.6 0 51.8-26.2 51.8-58.6zm365.5-63.4c4.5-0.3 9.3-0.6 15.1-0.6 2.2 0 4.3 0 4.3 3.2 0 1.8-1.9 2.3-4.3 2.9-4.7 1.1-11.7 2.9-11.7 16.3v41.6c0 37.3-12.8 68.2-73.6 68.2-40.5 0-62.9-16-62.9-51.2v-59.7c0-9.5-8.3-11.1-15-12.4-4.6-0.9-8.5-1.6-8.5-4.6 0-2.2 2.2-3.2 4.3-3.2 1.1 0 4 0.1 7.7 0.3 6.8 0.3 16.3 0.7 23.2 0.7 6.6 0 15.1-0.4 21.7-0.7 4.2-0.2 7.6-0.3 9.3-0.3 2.1 0 2.1 1 2.1 2.1 0 2-1.8 2.4-4.3 3-5.4 1.3-13.8 3.2-13.8 23.6v39.5c0 27.7 8.5 51.2 47.9 51.2 44.8 0 50.2-28.8 50.2-59.7v-36.3c0-13.8-11.2-16.4-19-18.3-4.4-1-7.7-1.8-7.7-4.1 0-2.5 2-2.4 4.4-2.2q1 0.1 2 0.1c6.4 1.1 11.7 1.1 18.1 1.1 3.4 0 6.8-0.3 10.5-0.5q0 0 0 0zm274.2-0.6c28.8-1.1 55.5 8.5 54.4 36.2 0 23.5-20.2 37.4-46.9 37.4-21.3 0-22.4-4.3-22.4-5.4 0-1 1.1-3.2 3.2-3.2 0.8 0 1.8 0.2 3 0.4 1.9 0.3 4.4 0.7 7.7 0.7 26.6 0 28.8-21.3 28.8-25.6 0-5.3-2.2-32-36.3-32-10.7 0-13.9 3.2-13.9 11.7v85.4c0 15.4 9.7 17.4 16.3 18.9 3.5 0.7 6.1 1.3 6.1 3.4 0 3.2-2.1 3.2-5.3 3.2-9.3 0-16.6-0.4-22-0.7-3.3-0.2-5.9-0.3-7.9-0.3-6.3 0-17.2 0.6-22.9 0.9l-1.9 0.1c-1 0-1.6 0-1.8 0 0 0-4.3 0-4.3-3.2 0-1.7 1.9-2.4 4.5-3.4 5.3-2 13.6-5.2 13.6-21.1v-81c0-13-9.6-14.6-16.5-15.8-3.9-0.6-6.9-1.1-6.9-3.4 0-1.1 1.1-3.2 6.4-3.2 0.5 0 1.8 0.1 3.5 0.2 5.1 0.3 14.8 0.9 27.4 0.9 1 0 3.1-0.1 6-0.3 6.5-0.3 17.1-0.8 28.1-0.8zm-1444.8-103.4h1500.3v27.7h-1500.3zm1531.2-397.7c-15.9 0-28.8-12.9-28.8-28.8 0-16 12.9-28.8 28.8-28.8 15.9 0 28.8 12.8 28.8 28.8 0 15.9-12.9 28.8-28.8 28.8zm-23.5-28.8c0 13.8 10.7 24.5 23.5 24.5 12.8 0 22.4-11.7 23.5-24.5 0-13.9-10.7-24.6-23.5-24.6-12.8 0-23.5 10.7-23.5 24.6zm32 9.6c0.6 2.1 1.1 3.7 1.5 4.9 0.4 1.2 0.7 2 0.7 2.5h-5.4c-0.6-0.6-0.9-2.1-1.2-4.2-0.2-1.2-0.5-2.7-0.9-4.3 0-4.3-2.1-5.3-6.4-5.3h-3.2v13.8h-5.3v-32c3.2-1 5.3-1 9.6-1 4.2 0 7.4 1 9.6 2.1q3.2 1.6 3.2 6.4c0 4.3-3.2 7.5-6.4 8.5 3.2 0 5.3 2.2 4.2 8.6zm-4.2-16c0-2.2-2.2-5.4-7.5-5.4h-3.2v10.7h4.3c4.2 0 7.4-2.1 6.4-5.3z"/>
</svg>